# xmcd CD database file
#
# Track frame offsets:
#	150
#	26037
#	36413
#	55560
#	77312
#	92835
#	108610
#	131467
#	150221
#	174217
#	186824
#	205129
#	232651
#	247782
#	271920
#	283800
#	295210
#
# Disc length: 4235 seconds
#
# Revision: 0
# Processed by: cddbd v1.5.2PL0 Copyright (c) Steve Scherf et al.
# Submitted via: CDex 1.50
#
DISCID=d4108911
DTITLE=Wes Montgomery - Bumpin' On Sunset
DYEAR=2007
DGENRE=Jazz
TTITLE0=A Day In The Life
TTITLE1=The Shadow Of Your Smile
TTITLE2=Up And At It
TTITLE3=Bumpin' On Sunset
TTITLE4=The Joker
TTITLE5=Movin' Wes (pt. 1)
TTITLE6=Impressions
TTITLE7=Milestones
TTITLE8=The Surrey With The Fringe On Top
TTITLE9=Angel
TTITLE10=Sunny
TTITLE11=O.G.D. (Road Song)
TTITLE12=Tequila
TTITLE13=13 (Death March)
TTITLE14=Caravan
TTITLE15=The Other Man's Grass Is Always Greener
TTITLE16=What The World Needs Now
EXTD=YEAR: 2007
EXTT0=
EXTT1=
EXTT2=
EXTT3=
EXTT4=
EXTT5=
EXTT6=
EXTT7=
EXTT8=
EXTT9=
EXTT10=
EXTT11=
EXTT12=
EXTT13=
EXTT14=
EXTT15=
EXTT16=
PLAYORDER=
